<svg xmlns="http://www.w3.org/2000/svg" width="871.4" height="180" viewBox="0 0 871.4 180">
  <g id="logo" transform="translate(-524.3 -450)">
    <path d="M50-69.8v11.3H20.9v17.9H43.2v11.1H20.9V0H6.9V-69.8Zm23.9,23a19.683,19.683,0,0,1,7.05-6.9,19.608,19.608,0,0,1,9.95-2.5v14.7H87.2q-6.6,0-9.95,3.1T73.9-27.6V0h-14V-55.4h14Zm77.9,17.9a33.04,33.04,0,0,1-.4,5.4H110.9a13.774,13.774,0,0,0,4.2,9.4,12.951,12.951,0,0,0,9.1,3.4q7.8,0,11.1-6.7h15.1a25.235,25.235,0,0,1-9.2,13.15Q134.4.9,124.5.9a28.9,28.9,0,0,1-14.35-3.55,24.987,24.987,0,0,1-9.9-10.05,30.794,30.794,0,0,1-3.55-15,31.367,31.367,0,0,1,3.5-15.1,24.421,24.421,0,0,1,9.8-10,29.358,29.358,0,0,1,14.5-3.5,29.126,29.126,0,0,1,14.15,3.4,23.929,23.929,0,0,1,9.7,9.65A29.2,29.2,0,0,1,151.8-28.9Zm-14.5-4a11.1,11.1,0,0,0-3.9-8.65,13.817,13.817,0,0,0-9.3-3.25,12.708,12.708,0,0,0-8.75,3.15A13.85,13.85,0,0,0,111-32.9Zm21.1,5a32.064,32.064,0,0,1,3.35-14.9,24.554,24.554,0,0,1,9.1-10,24.227,24.227,0,0,1,12.85-3.5,22.572,22.572,0,0,1,10.85,2.5A22.016,22.016,0,0,1,202-47.5v-7.9h14.1V0H202V-8.1a20.824,20.824,0,0,1-7.45,6.45A22.794,22.794,0,0,1,183.6.9a23.543,23.543,0,0,1-12.75-3.6,25.2,25.2,0,0,1-9.1-10.15A32.6,32.6,0,0,1,158.4-27.9Zm43.6.2a17.957,17.957,0,0,0-2-8.75,14.1,14.1,0,0,0-5.4-5.6A14.433,14.433,0,0,0,187.3-44a14.179,14.179,0,0,0-7.2,1.9,14.308,14.308,0,0,0-5.35,5.55,17.385,17.385,0,0,0-2.05,8.65,17.959,17.959,0,0,0,2.05,8.75,14.76,14.76,0,0,0,5.4,5.75,13.718,13.718,0,0,0,7.15,2,14.433,14.433,0,0,0,7.3-1.95,14.1,14.1,0,0,0,5.4-5.6A17.957,17.957,0,0,0,202-27.7ZM277.7.7a33.153,33.153,0,0,1-13.15-2.5A21.59,21.59,0,0,1,255.3-9a18.958,18.958,0,0,1-3.5-11.1h15a9.7,9.7,0,0,0,3.05,6.8,10.806,10.806,0,0,0,7.55,2.5q4.9,0,7.7-2.35a7.643,7.643,0,0,0,2.8-6.15,7.106,7.106,0,0,0-1.9-5.1,13.313,13.313,0,0,0-4.75-3.15,78.6,78.6,0,0,0-7.85-2.55,84.072,84.072,0,0,1-11.05-3.95,19.354,19.354,0,0,1-7.3-5.9Q252-43.9,252-50.5a18.863,18.863,0,0,1,3.1-10.8,19.718,19.718,0,0,1,8.7-7.05,31.653,31.653,0,0,1,12.8-2.45q10.8,0,17.55,5.25T301.6-50.9H286.2a8,8,0,0,0-3.05-5.95,11.492,11.492,0,0,0-7.55-2.35,9.722,9.722,0,0,0-6.55,2.1A7.592,7.592,0,0,0,266.6-51a6.306,6.306,0,0,0,1.85,4.65,14.108,14.108,0,0,0,4.6,3q2.75,1.15,7.75,2.65a81.418,81.418,0,0,1,11.1,4,19.934,19.934,0,0,1,7.4,6q3.1,4,3.1,10.5a19.751,19.751,0,0,1-2.9,10.4A20.473,20.473,0,0,1,291-2.15,28.992,28.992,0,0,1,277.7.7ZM366-28.9a33.04,33.04,0,0,1-.4,5.4H325.1a13.774,13.774,0,0,0,4.2,9.4,12.95,12.95,0,0,0,9.1,3.4q7.8,0,11.1-6.7h15.1a25.235,25.235,0,0,1-9.2,13.15Q348.6.9,338.7.9a28.9,28.9,0,0,1-14.35-3.55,24.987,24.987,0,0,1-9.9-10.05,30.794,30.794,0,0,1-3.55-15,31.367,31.367,0,0,1,3.5-15.1,24.421,24.421,0,0,1,9.8-10,29.358,29.358,0,0,1,14.5-3.5,29.126,29.126,0,0,1,14.15,3.4,23.929,23.929,0,0,1,9.7,9.65A29.2,29.2,0,0,1,366-28.9Zm-14.5-4a11.1,11.1,0,0,0-3.9-8.65,13.817,13.817,0,0,0-9.3-3.25,12.708,12.708,0,0,0-8.75,3.15,13.85,13.85,0,0,0-4.35,8.75Zm21.1,5a32.064,32.064,0,0,1,3.35-14.9,24.554,24.554,0,0,1,9.1-10,24.227,24.227,0,0,1,12.85-3.5,22.573,22.573,0,0,1,10.85,2.5,22.016,22.016,0,0,1,7.45,6.3v-7.9h14.1V0H416.2V-8.1a20.824,20.824,0,0,1-7.45,6.45A22.794,22.794,0,0,1,397.8.9a23.544,23.544,0,0,1-12.75-3.6,25.2,25.2,0,0,1-9.1-10.15A32.6,32.6,0,0,1,372.6-27.9Zm43.6.2a17.957,17.957,0,0,0-2-8.75,14.1,14.1,0,0,0-5.4-5.6A14.433,14.433,0,0,0,401.5-44a14.179,14.179,0,0,0-7.2,1.9,14.307,14.307,0,0,0-5.35,5.55,17.385,17.385,0,0,0-2.05,8.65,17.958,17.958,0,0,0,2.05,8.75,14.76,14.76,0,0,0,5.4,5.75,13.717,13.717,0,0,0,7.15,2,14.433,14.433,0,0,0,7.3-1.95,14.1,14.1,0,0,0,5.4-5.6A17.957,17.957,0,0,0,416.2-27.7ZM458-46.8a19.683,19.683,0,0,1,7.05-6.9A19.607,19.607,0,0,1,475-56.2v14.7h-3.7q-6.6,0-9.95,3.1T458-27.6V0H444V-55.4h14Zm22.8,19.1a31.075,31.075,0,0,1,3.5-15.05,25.017,25.017,0,0,1,9.7-10,28.065,28.065,0,0,1,14.2-3.55q10.3,0,17.05,5.15A25.051,25.051,0,0,1,534.3-36.7H519.2a11.043,11.043,0,0,0-4.05-5.65,11.758,11.758,0,0,0-7.05-2.05,11.546,11.546,0,0,0-9.5,4.35q-3.5,4.35-3.5,12.35,0,7.9,3.5,12.25a11.546,11.546,0,0,0,9.5,4.35q8.5,0,11.1-7.6h15.1a25.553,25.553,0,0,1-9.1,14.3Q518.4.9,508.2.9A28.065,28.065,0,0,1,494-2.65a25.017,25.017,0,0,1-9.7-10A31.075,31.075,0,0,1,480.8-27.7Zm95-28.5A22.489,22.489,0,0,1,587-53.45a18.949,18.949,0,0,1,7.65,8.1A27.808,27.808,0,0,1,597.4-32.5V0h-14V-30.6q0-6.6-3.3-10.15a11.688,11.688,0,0,0-9-3.55q-5.8,0-9.15,3.55T558.6-30.6V0h-14V-74h14v25.5a18.25,18.25,0,0,1,7.2-5.65A23.844,23.844,0,0,1,575.8-56.2Z" transform="translate(798.3 576.55)" fill="#111"/>
    <g id="symbol" transform="translate(152.479 82.122)">
      <path d="M65.884,131.767a66.37,66.37,0,0,1-13.278-1.339,65.522,65.522,0,0,1-23.558-9.913A66.076,66.076,0,0,1,5.177,91.528,65.551,65.551,0,0,1,1.339,79.161a66.56,66.56,0,0,1-.292-25.036c0,.089,0,.179,0,.255A54.38,54.38,0,1,0,60.4.225C62.217.075,64.061,0,65.884,0A66.371,66.371,0,0,1,79.161,1.339a65.523,65.523,0,0,1,23.558,9.913,66.076,66.076,0,0,1,23.87,28.987,65.55,65.55,0,0,1,3.839,12.367,66.526,66.526,0,0,1,0,26.556,65.522,65.522,0,0,1-9.913,23.558,66.076,66.076,0,0,1-28.987,23.87,65.55,65.55,0,0,1-12.367,3.839A66.37,66.37,0,0,1,65.884,131.767Z" transform="translate(395.967 392.024)" fill="#7f0606"/>
      <path d="M65.885,131.769a66.372,66.372,0,0,1-13.278-1.339,65.524,65.524,0,0,1-23.559-9.913A66.077,66.077,0,0,1,5.178,91.53,65.551,65.551,0,0,1,1.339,79.163a66.561,66.561,0,0,1-.292-25.037c0,.089,0,.179,0,.255A54.381,54.381,0,1,0,60.4.225C62.218.075,64.062,0,65.885,0A66.372,66.372,0,0,1,79.163,1.339a65.524,65.524,0,0,1,23.559,9.913,66.076,66.076,0,0,1,23.87,28.987,65.551,65.551,0,0,1,3.839,12.367,66.527,66.527,0,0,1,0,26.556,65.524,65.524,0,0,1-9.913,23.559,66.076,66.076,0,0,1-28.987,23.87,65.549,65.549,0,0,1-12.367,3.839A66.372,66.372,0,0,1,65.885,131.769Z" transform="translate(437.706 367.878) rotate(30)" fill="#c41b1b"/>
      <path d="M13.072,0A13.072,13.072,0,1,1,0,13.072,13.072,13.072,0,0,1,13.072,0Z" transform="translate(419.497 385.72)" fill="#c41b1b"/>
    </g>
  </g>
</svg>
