<svg xmlns="http://www.w3.org/2000/svg" width="440" height="440" viewBox="0 0 440 440">
  <g id="symbol" transform="translate(0)">
    <path d="M161.049,322.1a162.241,162.241,0,0,1-32.457-3.272A160.166,160.166,0,0,1,71,294.593a161.518,161.518,0,0,1-58.349-70.857,160.235,160.235,0,0,1-9.384-30.231,162.7,162.7,0,0,1-.714-61.2c0,.217,0,.437,0,.623,0,73.3,59.632,132.93,132.93,132.93s132.929-59.632,132.929-132.93C268.414,63.7,216.5,6.794,147.652.549,152.085.184,156.592,0,161.049,0a162.24,162.24,0,0,1,32.457,3.272A160.167,160.167,0,0,1,251.093,27.5a161.518,161.518,0,0,1,58.349,70.857,160.237,160.237,0,0,1,9.384,30.23,162.618,162.618,0,0,1,0,64.914,160.166,160.166,0,0,1-24.233,57.587,161.519,161.519,0,0,1-70.857,58.349,160.238,160.238,0,0,1-30.231,9.384A162.24,162.24,0,0,1,161.049,322.1Z" transform="translate(59.024 59.024)" fill="#7f0606"/>
    <path d="M161.051,322.1a162.246,162.246,0,0,1-32.458-3.272A160.171,160.171,0,0,1,71.006,294.6a161.52,161.52,0,0,1-58.35-70.858,160.237,160.237,0,0,1-9.384-30.231,162.7,162.7,0,0,1-.714-61.2c0,.217,0,.437,0,.623,0,73.3,59.633,132.932,132.932,132.932S268.419,206.23,268.419,132.931C268.419,63.706,216.5,6.794,147.654.549,152.087.184,156.595,0,161.051,0a162.242,162.242,0,0,1,32.457,3.272A160.171,160.171,0,0,1,251.1,27.5a161.52,161.52,0,0,1,58.35,70.858,160.24,160.24,0,0,1,9.384,30.231,162.624,162.624,0,0,1,0,64.915A160.172,160.172,0,0,1,294.6,251.1a161.519,161.519,0,0,1-70.858,58.35,160.237,160.237,0,0,1-30.231,9.384A162.246,162.246,0,0,1,161.051,322.1Z" transform="translate(161.051 0) rotate(30)" fill="#c41b1b"/>
    <path d="M31.954,0A31.954,31.954,0,1,1,0,31.954,31.954,31.954,0,0,1,31.954,0Z" transform="translate(116.541 43.613)" fill="#c41b1b"/>
  </g>
</svg>
